<svg width="512" height="512" xmlns="http://www.w3.org/2000/svg">
 <defs>
  <filter height="200%" width="200%" y="-50%" x="-50%" id="svg_3_blur">
   <feGaussianBlur stdDeviation="0" in="SourceGraphic"/>
  </filter>
 </defs>
 <g>
  <title>background</title>
  <rect fill="none" id="canvas_background" height="602" width="802" y="-1" x="-1"/>
 </g>
 <g>
  <title>Layer 1</title>
  <g transform="rotate(-22 412.11462402343744,220.68939208984384) " id="svg_21">
   <path stroke="null" id="svg_16" fill="#99503d" d="m361.88187,247.99173c-2.8993,0 -5.79565,-1.03287 -8.00774,-3.09861c-4.42416,-4.13147 -4.42416,-10.82447 0,-14.95595l4.29144,-4.00753c27.85157,-26.02831 67.58056,-37.45047 106.28904,-30.58396c6.15253,1.09622 10.18737,6.6324 9.01644,12.36414c-1.17387,5.72072 -7.16714,9.41977 -13.24004,8.4172c-31.35552,-5.58852 -63.49854,3.69905 -86.04997,24.75857l-4.29144,4.00753c-2.21208,2.06574 -5.11138,3.09861 -8.00774,3.09861zm0,0"/>
  </g>
  <path stroke="null" filter="url(#svg_3_blur)" transform="rotate(61 254.9716491699217,295.72442626953136) " id="svg_3" fill="#fdbf00" d="m386.53615,165.37063c-35.57294,-45.3599 -84.73302,-59.17424 -129.69537,-50.05067c-65.2176,13.55638 -86.21312,59.10764 -131.70331,142.87424c-22.45084,42.53309 -20.02761,58.31239 -28.58409,98.52035c-5.83323,30.19809 -4.73324,63.15894 3.66544,85.57753c8.39868,22.4186 28.71255,34.97435 50.64295,36.49429l56.57124,0c17.44426,-0.75997 33.59792,-2.08742 49.40776,-6.51684c32.36273,-7.8202 62.00738,-24.24128 86.46358,-46.40191c71.14911,-63.865 101.04145,-186.4664 43.23179,-260.49699z"/>
  <path stroke="null" transform="rotate(174 341.61328125,134) " id="svg_1" fill="#a8d32a" d="m397.83865,215.92175c-72.33158,0 -113.79212,-51.37019 -127.24905,-114.14427l-3.94347,-33.42338c0,-8.9941 8.385,-16.27584 18.74179,-16.27584c62.17436,12.926 125.40016,54.23373 131.19252,115.01596l0,32.55169c0,8.9941 -8.38012,16.27584 -18.74179,16.27584zm0,0"/>
 </g>
</svg>